<svg id="Layer_1" data-name="Layer 1" xmlns="http://www.w3.org/2000/svg" viewBox="0 0 550 400"><defs><style>.cls-1{fill:none;stroke:#40b6f5;stroke-linecap:round;stroke-linejoin:round;stroke-width:0.75px;}.cls-2{fill:#ce956e;}.cls-3{fill:#ffc98f;}.cls-4{fill:#b37344;}.cls-5{fill:#cdf3ff;}.cls-6{fill:#59377b;}.cls-7{fill:#40b6f5;}.cls-8{fill:#593180;}.cls-9{fill:#ffa400;}.cls-10{fill:#0072b0;}.cls-11{fill:#fff;}.cls-12{fill:#442a63;}.cls-13{fill:#10d1b2;}</style></defs><circle class="cls-1" cx="425.63" cy="108.97" r="58.95"></circle><circle class="cls-1" cx="425.31" cy="108.75" r="50.05"></circle><polyline class="cls-1" points="425.31 82.21 425.31 112.81 446.32 112.81"></polyline><circle class="cls-1" cx="425.31" cy="68.41" r="2.57"></circle><circle class="cls-1" cx="425.31" cy="150.02" r="2.57"></circle><circle class="cls-1" cx="445.4" cy="73.6" r="2.57"></circle><circle class="cls-1" cx="405.13" cy="144.57" r="2.57"></circle><circle class="cls-1" cx="460.32" cy="88.03" r="2.57"></circle><circle class="cls-1" cx="390.26" cy="129.88" r="2.57"></circle><circle class="cls-1" cx="466.17" cy="107.94" r="2.57"></circle><circle class="cls-1" cx="384.59" cy="109.76" r="2.57"></circle><circle class="cls-1" cx="461.43" cy="128.14" r="2.57"></circle><circle class="cls-1" cx="389.58" cy="89.46" r="2.57"></circle><circle class="cls-1" cx="447.34" cy="143.37" r="2.57"></circle><circle class="cls-1" cx="403.93" cy="74.27" r="2.57"></circle><path class="cls-2" d="M222.45,151v-4.59s8.36-3,11.07-10.61S238,122.68,238,122.68l-6.37-12.76L185.35,94l-21.09,7.3L153.8,119.88l-4.05,27.05,3.56,15.12L167,183.8Z"></path><path class="cls-3" d="M429.29,250.49h0l-9.68,4.76s-20.89,7.94-26.65,4.31a23.9,23.9,0,0,0-12.43-3.34c-22.44-4.24-22.5-14-22.5-14-40.61-5.22-49.51,5.47-49.51,5.47L304.49,326h0a132.47,132.47,0,0,0,5.12,24.12l-2.91,43.33,198.2.27c-5.39-38.79-15.09-74.26-28.45-111.07-2.05-5.64-4.21-11.42-8.2-15.91-6.12-6.91-15.53-9.71-24.42-12.2l-14.49-4.06"></path><path class="cls-4" d="M425.57,249.44,418,247.32a24.14,24.14,0,0,1-9.1-5.25c-2.09-1.76-4.51-4.22-4.48-6.87,0,0,10.06-8.13,13.12-23.75,0,0,5.38-68.25-34.3-65.23l-13,10c-21.9,4.64-19.09,31.43-19.09,31.43s-7.56-3.6-9.89,4.79,7.9,10.47,7.9,10.47l8.13,10.46-.72,8a58.25,58.25,0,0,1,.08,20.42s.63,11.85,26,15.36a39.28,39.28,0,0,1,9.15,2.23c3.55,1.5,6.57,1.16,10.4.77,6.08-.63,15.39-2.88,27.22-9.67Z"></path><path class="cls-5" d="M44.32,393.47c-2.53-33.56,9.33-63.87,12.54-97.37,1.2-12.5,1.22-25.08,1.78-37.62.7-15.53,2.27-31.11,5.91-46.19,0,0,19.42-63.11,44-68.86,0,0,7-3.7,25.54,4.31,6.57,2.83,15.66-.81,15.66-.81l7.18,6.88s-2.87,12.12,10,23.56l-.29-.26c3.09-2.06,4.76-7.17,5.85-10.72,6.82,2,20.38,8.21,27.7,40,3.52,15.3,12.65,28.63,18.28,43.29,1.1,2.87,2.06,5.9,1.74,9a21.81,21.81,0,0,1-2.18,6.6c0,.84-1,2.3-1.39,3.08l-1.47,3.25-3,6.61-5.89,13c-1.54,3.41-3.52,6.88-3.9,10.66-.27,2.68,0,5.35-.36,8-.68,4.51-1.84,9-2.72,13.47s-1.76,9.26-2.57,13.9q-2.42,13.88-4.26,27.84T189.45,393"></path><path class="cls-6" d="M361.1,146.73a16.94,16.94,0,0,0-17.49,7.34c-2.2,3.51-3,7.73-5,11.35-1.33,2.41-3.2,4.6-3.85,7.27-.57,2.33-.16,4.83-.77,7.16s-2.31,4.42-2.75,6.85c-.27,1.55,0,3.15-.15,4.73-.34,4.39-3.58,8.34-3.18,12.73.14,1.52.71,3,.87,4.49.35,3.51-1.55,6.84-2,10.35-.35,2.91.34,5.85.17,8.78-.27,4.81-2.82,9.75-1,14.2a191.5,191.5,0,0,1,30.67.09c.25-5.59,3-11.2,1.43-16.59-.75-2.63-2.19-5.08-2.72-7.77a18.18,18.18,0,0,1-.09-6.86c-1.43-1.91-3.35-4.5-4.79-6.4a6.48,6.48,0,0,0-1.37-1.53c-.56-.35-1.24-.28-1.84-.56-2.89-1.32-5-2.73-6-5.56s0-5.38,1.75-7.89,5.79-2.44,8.33-.89A30.11,30.11,0,0,1,355,168.85a29.15,29.15,0,0,1,14.58-12.46,89.66,89.66,0,0,0-5.15-8.52C363.72,147,362.17,147,361.1,146.73Z"></path><path class="cls-7" d="M203.08,259.07c-3.78-2.07-6.71-6-11-6.51-3.38-.4-7,1.49-10.07-.07-2.46-1.27-3.53-4.42-6-5.59a9.47,9.47,0,0,0-3.31-.66c-1.73-.13-3.71-.43-5.44-.56-2.58-23-16.08-56.92-16.08-56.92l-64.7,33.92L98.53,253a50.19,50.19,0,0,0,9.5,13.29,191.27,191.27,0,0,1,15,16.92c5.38,6.87,9.44,9.25,12,10a30,30,0,0,1,6.55,2.63,22,22,0,0,0,10.23,2.4,50.67,50.67,0,0,1,17.59,3.44,127,127,0,0,0,32.58,7.63l7-48.12A23.84,23.84,0,0,1,203.08,259.07Z"></path><path class="cls-8" d="M365,181.93a.81.81,0,0,1-.62-.29.8.8,0,0,1,.1-1.14c.06-.06,6.71-5.57,13.71-1.51a.81.81,0,0,1,.3,1.11.83.83,0,0,1-1.12.3c-6-3.48-11.6,1.14-11.84,1.34A.8.8,0,0,1,365,181.93Z"></path><path class="cls-8" d="M407.78,180.51a.77.77,0,0,1-.55-.22c-4.17-3.83-11.48-1.25-11.56-1.22a.82.82,0,0,1-1-.49.83.83,0,0,1,.49-1.05c.34-.12,8.31-2.94,13.21,1.56a.82.82,0,0,1,.05,1.15A.8.8,0,0,1,407.78,180.51Z"></path><ellipse class="cls-6" cx="372.25" cy="187.71" rx="1.58" ry="3"></ellipse><ellipse class="cls-6" cx="214.44" cy="138.9" rx="3" ry="1.58" transform="translate(-30.85 210.38) rotate(-49.18)"></ellipse><ellipse class="cls-6" cx="403.17" cy="187.71" rx="1.58" ry="3"></ellipse><path class="cls-5" d="M363.27,200.68a.83.83,0,0,1-.58-.25c-4.09-4.21-8.16-8.56-12.09-12.92a.83.83,0,0,1,.06-1.16.81.81,0,0,1,1.15.07c3.92,4.34,8,8.68,12.05,12.87a.82.82,0,0,1-.59,1.39Z"></path><path class="cls-7" d="M192.78,248.23h-.09a.81.81,0,0,1-.72-.9c1.11-9.56-5.56-21-5.62-21.09l-10.07-19.84c-.23-.35-6.4-10.27-6.4-18.68,0-7.6-3.28-9.61-3.32-9.63a.82.82,0,0,1-.3-1.11.81.81,0,0,1,1.1-.31c.17.09,4.15,2.39,4.15,11.05,0,7.95,6.12,17.78,6.19,17.88l10.07,19.86c.26.44,7,11.94,5.82,22.06A.81.81,0,0,1,192.78,248.23Z"></path><path class="cls-9" d="M458.11,394.28a.82.82,0,0,1-.82-.78c0-.86-.08-1.71-.14-2.54l-.28-3.66c-1-12.91-2-26.25-.33-39.3.17-1.38.37-2.78.58-4.19,1.14-7.91,2.32-16.09-1.24-22.94-.12-.23-.25-.46-.37-.7a6.45,6.45,0,0,1-.46-7.47l.23-.48c2.25-4.91,2.25-10.69,2.24-16.28,0-6.79,0-13.8,4-19.37a.81.81,0,1,1,1.32.95c-3.71,5.15-3.7,11.59-3.69,18.42,0,5.76,0,11.73-2.39,17l-.24.5a7.26,7.26,0,0,0-.81,2.37,7.07,7.07,0,0,0,1.23,3.62l.39.73c3.79,7.31,2.58,15.76,1.4,23.92-.2,1.4-.4,2.79-.57,4.16-1.63,12.89-.63,26.15.34,39l.27,3.67c.07.85.12,1.72.15,2.6a.8.8,0,0,1-.78.84Z"></path><path class="cls-9" d="M392.6,278.19a1.71,1.71,0,0,1-1.54-.8c-2.63-1.94-5.37-3.82-8-5.63-4.28-2.93-8.7-6-12.77-9.34a45.73,45.73,0,0,1-14.56-20.74.81.81,0,0,1,.51-1,.82.82,0,0,1,1,.51,44.19,44.19,0,0,0,14.06,20c4,3.33,8.4,6.34,12.65,9.24,2.72,1.86,5.54,3.79,8.24,5.79a.8.8,0,0,1,.28.37,1.9,1.9,0,0,0,.5-.08,2.85,2.85,0,0,0,1.06-.89c7.77-8.91,11.8-19.6,16.07-30.91l.06-.17a.81.81,0,0,1,1.52.58l-.06.16c-4.32,11.46-8.4,22.28-16.36,31.41a4.24,4.24,0,0,1-1.79,1.37A2.79,2.79,0,0,1,392.6,278.19Z"></path><path class="cls-6" d="M392.16,286.35a1.43,1.43,0,0,0,.48.88,1,1,0,0,0,1.27-.25,2.67,2.67,0,0,0,.53-1.3,17,17,0,0,0,.05-6.24c-.11-.58-.57-2.2-1.39-2s-1,2-1.11,2.59A14.56,14.56,0,0,0,392.16,286.35Z"></path><path class="cls-6" d="M239.38,122.73s10.9-38.44-34.71-47.62c0,0-28.68-5.16-43.31,22.66,0,0-7.18-.86-5.17,5.74,0,0-10.92,4.23-27.85,19.18A115.52,115.52,0,0,1,113.18,134c-6.3,4-15,10-21,16.63C72.83,172,65,197.65,62.66,207.08a6.62,6.62,0,0,0,1.74,6.3h0s10.67-42.34,37.86-67c0,0,7.75-7.91,27.54,0,11.73,4.68,21.54.75,27.59-3.23a24.15,24.15,0,0,0,8.68-10.2l.74-1.62s-9.76-2-2.87-18.07c0,0,5.45-12.05,12.33-5.74,0,0,2.17,2.17,2.09,7.84a4.52,4.52,0,0,0,.69,2.54,6.81,6.81,0,0,1,1,4,1.5,1.5,0,0,0,2.51,1.19c4.28-4,11.27-8.41,18.66-4.69.58.29,1.15.54,1.7.76a15.26,15.26,0,0,0,14.36-1.84,13.62,13.62,0,0,1,7.14-2.72,8.15,8.15,0,0,1,6.21,2.81C232.53,119.59,236.17,123.13,239.38,122.73Z"></path><path class="cls-8" d="M222,139.71a.81.81,0,0,1-.79-.65c-1.32-6.29-9.93-8.53-10-8.55a.81.81,0,1,1,.4-1.58c.39.1,9.69,2.5,11.21,9.8a.83.83,0,0,1-.63,1Z"></path><path class="cls-10" d="M174.13,160.22a.8.8,0,0,1-.68-.38c-4.16-6.58-5.71-15.55-7.08-23.46-.25-1.4-.48-2.77-.73-4.1a.81.81,0,1,1,1.6-.29c.25,1.33.49,2.71.73,4.11,1.35,7.77,2.87,16.56,6.85,22.86a.82.82,0,0,1-.25,1.13A.9.9,0,0,1,174.13,160.22Z"></path><path class="cls-10" d="M186.71,142.39a.81.81,0,0,1-.75-.5,74.33,74.33,0,0,1-5-19.77.82.82,0,0,1,.73-.9.81.81,0,0,1,.89.72,73.05,73.05,0,0,0,4.9,19.32.82.82,0,0,1-.43,1.07A.91.91,0,0,1,186.71,142.39Z"></path><path class="cls-5" d="M163.52,185.53a.81.81,0,0,1-.8-.71c-.73-5.65-6.1-11.24-7.27-12.41h-4.28a.81.81,0,0,1-.81-.72c-1.13-10.52-11.53-22.22-11.64-22.34a.81.81,0,1,1,1.21-1.09c.44.49,10.41,11.71,12,22.53h3.89a.83.83,0,0,1,.56.21c.28.28,7.1,6.72,8,13.61a.82.82,0,0,1-.7.91Z"></path><path class="cls-7" d="M258.52,248.35a12.89,12.89,0,0,1,4.78.81L279,253.91a8.77,8.77,0,0,1,3.72,1.82,8.38,8.38,0,0,1,1.93,4.32,89,89,0,0,1,1.8,11.84,6.53,6.53,0,0,1-.56,4.06,5,5,0,0,1-4.64,1.91,45.58,45.58,0,0,1-5.14-1.08,14.56,14.56,0,0,0-9.86,1.71c-1.23.72-2.36,1.62-3.64,2.26-5,2.49-11,.43-16.23-1.65a40.76,40.76,0,0,1-.16-4.6c-.12-1.6-.31-3.19-.55-4.77s-.54-3-.89-4.53a11.89,11.89,0,0,1-.71-3.81c.19-1.89,2.12-2.91,3.4-4.06,1.76-1.58,3.18-3.5,4.79-5.22S255.94,248.57,258.52,248.35Z"></path><path class="cls-10" d="M282.85,278.43a3.37,3.37,0,0,1-1.26-.25,4.76,4.76,0,0,1-2.61-2.77,11.37,11.37,0,0,1-.48-3.77c0-.57,0-1.11-.07-1.64a10.67,10.67,0,0,0-2-5.39,13.85,13.85,0,0,1-14.65,6.71.82.82,0,0,1,.36-1.59,12.09,12.09,0,0,0,13.36-6.93.79.79,0,0,1,.61-.49.81.81,0,0,1,.74.25,12.34,12.34,0,0,1,3.25,7.3c.05.59.06,1.18.07,1.75a10,10,0,0,0,.38,3.25,3.21,3.21,0,0,0,1.69,1.81,1.49,1.49,0,0,0,1.24,0,.81.81,0,1,1,.72,1.46A2.93,2.93,0,0,1,282.85,278.43Z"></path><path class="cls-11" d="M206.31,304.15c6.47,7.2,14.93,12.42,23.93,16s18.56,5.52,28.14,6.88a76.63,76.63,0,0,0,15.45-28.41,147.14,147.14,0,0,0-29.34-19.83,9.64,9.64,0,0,0-4-1.34c-2.32-.1-4.38,1.38-6.23,2.78l-20,15.16c-3.18,2.41-6.52,5.05-7.77,8.83C207.37,304.18,205.44,304.17,206.31,304.15Z"></path><ellipse class="cls-7" cx="181.13" cy="378.65" rx="2.51" ry="5.84"></ellipse><ellipse class="cls-7" cx="189.03" cy="328.49" rx="2.51" ry="5.84"></ellipse><path class="cls-7" d="M78.19,393.42h0a.83.83,0,0,1-.78-.85c.93-24,2.54-36.26,5.8-59.65a.83.83,0,0,1,1-.67c3.78,1.14,7.87,1.22,11.83,1.3h.47a497.56,497.56,0,0,1,58.35,4.59.82.82,0,0,1,.7.67c.86,5.14.14,10.38-.56,15.44l-.73,5.27c-1.8,13-2.54,18.37-2.55,33.08a.82.82,0,0,1-.82.82h0a.82.82,0,0,1-.81-.82c0-14.83.76-20.24,2.57-33.31l.73-5.26c.65-4.75,1.33-9.64.65-14.36a495,495,0,0,0-57.56-4.49H96a49.39,49.39,0,0,1-11.35-1.11c-3.17,22.73-4.75,35-5.66,58.56A.82.82,0,0,1,78.19,393.42Z"></path><path class="cls-6" d="M440.85,273.44a87,87,0,0,0-2-16.79,24.21,24.21,0,0,1-1-7.1c.15-2,.86-3.93,1-5.92.31-3.85-1.41-7.61-1.43-11.47,0-3.19,1.15-6.31,1-9.49-.21-4.07-2.55-7.76-3-11.8-.33-3.17.54-6.42-.13-9.54-.54-2.47-2-4.66-2.63-7.11-.83-3.29-.11-6.89-1.39-10-.59-1.44-1.57-2.68-2.28-4.06a23.92,23.92,0,0,1-1.78-5.82l-2.11-9.93a30.09,30.09,0,0,0-1.66-5.85c-1.48-3.38-4.14-6.09-6.75-8.71l-8.22-8.28c-1.39-1.39-2.87-2.85-4.77-3.34s-3.85,0-5.71-.45c-2.41-.59-4.34-2.71-6.81-2.88-2.22-.16-4.3,1.3-6.52,1.17-1.51-.1-2.92-.93-4.44-.89-2.11.06-3.76,1.76-5.65,2.7-2.25,1.12-4.87,1.17-7.2,2.1a4.86,4.86,0,0,0-2.09,7.47,28.82,28.82,0,0,1,4.81,8.8c4.16-2.87,8.67-3.33,13.71-2.92,2,.17,4,.61,6.07.58a23.75,23.75,0,0,1,4.46,0c4.41.77,6.51,5.7,9.45,9.08,1.71,2,3.95,3.62,4.76,6.08.47,1.41.41,2.94.82,4.37.85,2.94,3.55,5.09,4.32,8,.64,2.49-.2,5.1-.17,7.67.07,4.33,2.61,8.31,2.85,12.64s-1.7,8.31-1.17,12.46c.34,2.59,1.62,5,1.76,7.63.14,2.78-1,5.56-.54,8.3s2.78,5.1,3.58,7.88c1.62,5.62-3,12-.43,17.26.62,1.27,1.62,2.36,2,3.7.61,1.94-.07,4-.27,6a12.68,12.68,0,0,0,1.1,6.57,1.55,1.55,0,0,0,1.7.87c1.07-.26,1.53-1.51,1.82-2.57.69.65.48,1.88,1.14,2.57a2.68,2.68,0,0,0,1.23.6c.78.23,1.57.44,2.37.65a1.36,1.36,0,0,0,1.64-.94l.09-.3A3.31,3.31,0,0,0,434,274a1.36,1.36,0,0,0,2-.88l0-.14a5.89,5.89,0,0,0,2.2,1.55,2,2,0,0,0,2.4-.75C440.77,273.51,440.86,273.76,440.85,273.44Z"></path><path class="cls-5" d="M151.17,183s13.5,34,16.08,56.92c1.73.13,3.71.43,5.44.56a9.47,9.47,0,0,1,3.31.66c2.5,1.18,3.57,4.32,6,5.59,3,1.56,6.69-.33,10.07.07,4.27.5,7.2,4.44,11,6.51a26.78,26.78,0,0,0,6.87,2.27c11.15,2.58,22.44,5.19,33.89,5,0,0,11.19,17.75-7.17,42.71,0,0-34.81,5.16-67.17-7.46a50.67,50.67,0,0,0-17.59-3.44,22,22,0,0,1-10.23-2.4,29.49,29.49,0,0,0-6.55-2.62c-2.61-.73-6.67-3.11-12-10a192.72,192.72,0,0,0-15-16.92,50.19,50.19,0,0,1-9.5-13.29L84.06,217.78"></path><path class="cls-7" d="M219,305.1c-13.21,0-32-1.56-49.83-8.53a50.41,50.41,0,0,0-17.32-3.39,22.92,22.92,0,0,1-10.59-2.5,29.09,29.09,0,0,0-6.38-2.55c-2.59-.72-6.86-3.08-12.47-10.26a192.13,192.13,0,0,0-15-16.84,51,51,0,0,1-9.65-13.51L83.33,218.14a.82.82,0,0,1,.37-1.09.83.83,0,0,1,1.1.37L99.26,246.8a49.18,49.18,0,0,0,9.35,13.07,195,195,0,0,1,15.11,17c5.34,6.82,9.27,9,11.63,9.69a30.4,30.4,0,0,1,6.73,2.7,21.47,21.47,0,0,0,9.85,2.29,51,51,0,0,1,17.9,3.52c30.07,11.72,62.74,7.91,66.39,7.44,9.12-12.53,10.54-23.11,10.12-29.8a28.55,28.55,0,0,0-3-11.33c-11.42.09-22.71-2.53-33.61-5.06a26.84,26.84,0,0,1-7.07-2.35,28.41,28.41,0,0,1-4-2.79c-2.16-1.71-4.21-3.33-6.71-3.62a15.11,15.11,0,0,0-3.92.25c-2.16.32-4.38.65-6.43-.41a10.43,10.43,0,0,1-3.19-3,6.3,6.3,0,0,0-5.84-3.19c-.88-.06-1.83-.17-2.75-.28s-1.83-.21-2.68-.28a.81.81,0,0,1-.75-.72c-2.54-22.58-15.89-56.37-16-56.71a.82.82,0,0,1,1.52-.6c.13.34,13.31,33.68,16.06,56.47.68.06,1.38.14,2.07.22.91.11,1.84.22,2.69.28a10.06,10.06,0,0,1,3.6.73,10.19,10.19,0,0,1,3.37,3.05A9.25,9.25,0,0,0,182.4,246c1.58.81,3.45.53,5.44.24a16.65,16.65,0,0,1,4.35-.26c3,.35,5.28,2.18,7.53,4a27.67,27.67,0,0,0,3.75,2.64,25.65,25.65,0,0,0,6.66,2.19c11,2.54,22.31,5.18,33.7,5h0a.81.81,0,0,1,.69.38c.12.19,2.91,4.7,3.42,12.37.47,7-1,18.16-10.62,31.25a.78.78,0,0,1-.54.32A134.55,134.55,0,0,1,219,305.1Z"></path><path class="cls-4" d="M267,393.47c2.11-7.77,2.38-13,2.2-21.05,14-13.53,24.73-30.05,35.31-46.4,4.12-6.37,8.3-12.87,10.35-20.18,2.9-10.37,1.32-21.8,5.54-31.72,1.62-3.82,4.07-7.3,5.29-11.28s.85-8.88-2.37-11.52c-2.72-2.23-6.47-2.19-9.76-2.87-1.45-.3-3.61-1.65-5-.71a25.14,25.14,0,0,0-2.56,2.49,91.62,91.62,0,0,0-9.16,10.61c-11.3,14.59-22.2,29.73-29.51,46.67-2.78,6.44-5,13.13-8.46,19.24-7.53,13.43-16.63,23-23.08,36.93-4.82,10.45-7.37,17.18-7.13,29.79"></path><path class="cls-9" d="M317.12,305.13a.85.85,0,0,1-.57-.23.81.81,0,0,1,0-1.15c.27-.29,27.25-28.48,18.5-54a.81.81,0,1,1,1.54-.53c9.07,26.51-18.59,55.41-18.87,55.7A.81.81,0,0,1,317.12,305.13Z"></path><path class="cls-12" d="M404,235.65a41.77,41.77,0,0,0,12.2-21s8.77,26.75,5.16,33.62C421.34,248.26,405.39,245.61,404,235.65Z"></path><path class="cls-7" d="M173.79,160.09a10.14,10.14,0,0,0-1.31,3.84c-.19,3.18,2.49,5.71,5,7.74l10.15,8.4c1.53,1.27,3.19,2.59,5.17,2.84a10.18,10.18,0,0,0,5.25-1.23,128.12,128.12,0,0,0,17.13-9.18,9,9,0,0,0,5.05-7.51q1.37-7,2.27-14a56.24,56.24,0,0,1-12.82-6c-2.63-1.66-5.17-3.56-8.13-4.51-5.43-1.75-11.82-.18-16.95,1.9a6.17,6.17,0,0,0-3.35,2.86c-.95,1.82-1.72,3.74-2.67,5.57Q176.11,155.44,173.79,160.09Z"></path><path class="cls-9" d="M317.72,284.41s2.09,25.48-2.57,32.88-9.53,16.61-9.53,16.61L304.49,326s10.21-13.74,11.45-25.34S317.72,284.41,317.72,284.41Z"></path><path class="cls-13" d="M404.57,235a74.88,74.88,0,0,0,7.25-9.2s10.28-15.26,0-23.89-24.89-8.29-24.89-8.29-9.29-2-23.22,5.64a15.81,15.81,0,0,0-8.59,12.62,20.45,20.45,0,0,0,5.31,15.9c5.89,6.53,17.66,18.17,26.5,17.93,6.4-.17,12.9-5.58,17.64-10.71"></path><path class="cls-12" d="M369.91,156.58a.79.79,0,0,1-.7-.39l-5.09-8.34a.81.81,0,0,1,1.39-.84l5.09,8.33a.81.81,0,0,1-.27,1.12A.73.73,0,0,1,369.91,156.58Z"></path><line class="cls-1" x1="36.76" y1="393.33" x2="513.62" y2="393.33"></line></svg>